<?xml version="1.0" standalone="no"?>
<!DOCTYPE svg PUBLIC "-//W3C//DTD SVG 20010904//EN"
 "http://www.w3.org/TR/2001/REC-SVG-20010904/DTD/svg10.dtd">
<svg version="1.0" xmlns="http://www.w3.org/2000/svg"
 width="512.000000pt" height="512.000000pt" viewBox="0 0 512.000000 512.000000"
 preserveAspectRatio="xMidYMid meet">

<g transform="translate(0.000000,512.000000) scale(0.100000,-0.100000)"
fill="#000000" stroke="none">
<path d="M3592 5098 c-7 -7 -12 -25 -12 -41 0 -18 -11 -39 -30 -59 -16 -16
-30 -31 -30 -34 0 -2 17 -12 38 -22 20 -11 50 -26 66 -35 21 -11 34 -13 42 -6
18 15 74 104 74 117 0 7 -15 18 -32 26 -18 7 -44 25 -57 40 -27 29 -41 32 -59
14z"/>
<path d="M2550 5084 c-180 -37 -318 -122 -420 -259 -94 -128 -133 -244 -135
-405 l-2 -115 -62 -31 c-34 -17 -67 -36 -74 -43 -18 -18 -39 -13 -118 23 -41
19 -112 46 -159 62 -80 26 -96 28 -260 28 -186 0 -281 -16 -418 -68 -82 -31
-92 -55 -92 -216 0 -101 5 -144 26 -224 46 -182 162 -390 281 -502 l65 -61
-19 -93 -18 -93 -82 -28 c-112 -40 -196 -91 -269 -164 -122 -121 -162 -270
-113 -419 39 -120 152 -232 283 -282 96 -37 126 -43 253 -53 62 -5 119 -14
127 -20 7 -6 31 -41 52 -78 42 -70 127 -175 236 -288 l68 -70 0 -107 c0 -129
20 -232 61 -316 17 -35 27 -67 23 -72 -5 -4 -27 -13 -49 -20 -174 -54 -365
-286 -341 -415 9 -44 37 -66 91 -73 53 -5 65 -18 38 -37 -53 -37 -58 -211 -9
-302 31 -56 165 -184 224 -215 59 -30 55 -30 597 92 491 111 758 169 1295 280
360 75 601 126 755 160 77 17 202 44 277 61 240 52 268 66 268 131 0 43 -26
61 -79 54 -25 -3 -55 -7 -65 -8 -11 -2 -24 6 -31 17 -5 11 -18 32 -28 46 -10
15 -29 72 -43 128 -23 95 -24 106 -12 168 13 66 13 66 56 79 63 18 82 39 82
90 0 54 -18 70 -187 160 l-128 69 -126 -1 -126 -2 -6 127 c-4 69 -11 141 -16
158 -10 35 -11 33 71 148 86 122 154 273 208 465 l27 95 123 7 c109 6 130 10
185 37 74 37 127 92 164 170 21 46 26 70 26 136 0 72 -3 86 -33 142 -36 64
-78 105 -152 144 -36 19 -60 24 -125 24 -69 0 -87 -4 -129 -28 -27 -15 -52
-24 -56 -20 -4 5 -26 67 -49 138 -23 72 -57 162 -76 200 -19 38 -35 75 -35 83
0 7 11 28 26 47 35 47 99 182 126 268 20 62 23 93 23 222 -1 172 -17 266 -68
384 -21 50 -40 80 -57 89 -38 20 -330 9 -436 -17 -171 -42 -262 -89 -395 -202
-37 -32 -62 -46 -75 -43 -10 3 -48 8 -83 12 -41 4 -67 12 -71 22 -5 8 -15 49
-25 91 -19 88 -73 201 -130 275 -86 109 -241 209 -369 239 -72 17 -241 28
-286 19z m243 -109 c81 -17 163 -53 203 -88 16 -15 44 -38 62 -53 68 -55 119
-136 158 -250 41 -121 48 -211 25 -316 l-12 -58 -40 0 c-44 0 -45 1 -24 60 19
54 19 170 0 243 -39 152 -133 271 -265 340 -72 38 -98 46 -166 52 -158 14
-247 -11 -376 -103 -120 -85 -188 -247 -175 -416 10 -126 25 -171 83 -251 l54
-76 -28 -10 c-72 -27 -73 -27 -129 63 -80 130 -102 268 -67 435 18 86 39 134
94 208 64 85 107 121 223 185 89 49 246 64 380 35z m-18 -159 c120 -31 207
-105 264 -220 66 -132 77 -244 34 -341 -9 -22 -17 -44 -17 -50 -1 -5 -19 -13
-41 -17 -68 -12 -175 -24 -175 -20 0 2 16 24 35 49 31 41 35 53 35 105 0 70
-16 102 -70 141 -32 23 -138 56 -182 57 -5 0 -17 9 -28 20 -43 43 -11 100 57
100 33 0 63 -21 63 -45 0 -24 21 -28 61 -10 44 20 46 29 22 79 -11 25 -32 44
-70 63 -29 15 -56 36 -59 46 -9 27 -88 20 -92 -8 -2 -12 -21 -30 -49 -45 -65
-35 -87 -69 -87 -133 0 -101 57 -157 183 -181 78 -15 111 -36 111 -71 0 -39
-31 -66 -80 -72 -41 -4 -48 -2 -79 31 -39 40 -68 45 -102 17 -20 -16 -21 -21
-10 -48 16 -40 57 -78 103 -97 75 -32 59 -49 -63 -70 -53 -9 -103 -14 -111
-11 -20 8 -101 103 -120 140 -65 130 -50 327 32 436 47 62 143 133 207 153 61
19 163 20 228 2z m1587 -234 c4 -4 22 -64 39 -132 26 -104 32 -145 32 -245 1
-106 -2 -129 -27 -198 -15 -42 -34 -89 -42 -105 -7 -15 -14 -32 -14 -38 0 -6
-11 -21 -24 -33 l-25 -23 -20 39 c-11 22 -27 45 -35 52 -9 7 -26 29 -37 48
-21 33 -21 36 -5 45 14 8 17 26 16 126 -1 64 2 143 6 175 6 55 6 57 -16 57
-19 0 -161 -72 -252 -128 -26 -16 -28 -15 -50 4 -18 16 -136 85 -247 142 -24
13 -16 26 40 64 160 108 393 173 583 163 38 -2 73 -8 78 -13z m-832 -283 c71
-28 151 -65 177 -82 26 -17 59 -37 72 -44 25 -14 66 -47 153 -123 63 -56 225
-243 241 -278 6 -15 23 -43 37 -63 14 -20 34 -56 44 -80 11 -24 37 -81 58
-127 21 -45 38 -88 38 -95 0 -6 14 -54 30 -106 44 -136 53 -215 47 -373 -7
-165 -16 -218 -76 -438 -22 -81 -91 -225 -135 -283 -19 -25 -39 -54 -45 -65
-6 -11 -24 -23 -39 -27 -22 -4 -35 -18 -52 -52 l-23 -46 29 -56 c25 -50 28
-68 31 -171 3 -104 2 -120 -19 -164 l-23 -49 -172 2 c-100 1 -174 -2 -177 -7
-3 -6 6 -13 21 -16 18 -5 23 -10 15 -18 -14 -14 -96 14 -156 54 l-46 30 -63
-31 c-95 -46 -250 -97 -367 -119 -242 -46 -529 -52 -656 -13 -32 10 -64 16
-71 14 -7 -3 -13 -21 -13 -40 0 -45 -14 -70 -64 -115 -92 -84 -196 -124 -300
-116 -116 10 -166 62 -192 198 -16 82 -15 210 1 272 6 23 2 33 -27 60 -267
254 -362 382 -453 608 -127 317 -144 712 -44 1036 30 96 98 237 161 334 60 92
202 254 249 283 16 11 29 23 29 27 0 10 175 142 217 164 32 16 33 16 50 -11
15 -22 18 -49 18 -140 0 -90 3 -116 15 -124 22 -14 115 -1 295 42 88 22 171
39 185 39 14 0 57 7 95 16 157 34 385 75 470 84 50 5 140 14 200 20 61 6 118
13 127 16 44 13 24 99 -24 106 -20 3 -23 9 -26 61 -2 47 0 57 13 57 9 0 75
-23 145 -51z m-2070 -63 c86 -14 244 -69 257 -89 3 -6 -16 -28 -43 -51 -27
-22 -80 -73 -118 -113 -79 -84 -88 -86 -189 -49 -84 32 -236 61 -249 48 -21
-21 6 -65 47 -79 21 -7 61 -30 89 -52 28 -21 66 -46 84 -55 17 -9 32 -19 32
-23 0 -3 -15 -29 -34 -57 -18 -28 -37 -62 -41 -75 -4 -13 -25 -61 -46 -107
-22 -46 -39 -90 -39 -99 0 -28 -20 -15 -87 54 -134 140 -199 312 -210 558 l-6
122 29 12 c49 19 179 50 246 58 99 13 186 12 278 -3z m2719 -79 c1 -15 -5 -30
-13 -33 -8 -3 -16 -14 -19 -24 -6 -25 -52 -20 -80 8 -11 12 -19 23 -16 25 2 2
29 23 59 46 59 46 68 44 69 -22z m603 -957 c121 -34 176 -187 111 -310 -51
-96 -172 -148 -288 -123 l-40 9 -2 149 c-1 83 2 164 8 181 11 35 64 90 94 97
35 8 79 7 117 -3z m-3651 -267 c0 -10 0 -40 -1 -68 -1 -76 18 -237 41 -339 40
-180 49 -209 65 -227 10 -11 14 -22 11 -26 -4 -3 -55 4 -113 15 -207 42 -314
122 -350 262 -14 54 -14 66 0 121 20 76 63 139 129 187 68 50 69 51 130 73 66
23 87 24 88 2z m3401 -1396 c55 -20 90 -58 68 -72 -9 -6 -151 -38 -335 -75
-49 -10 -128 -30 -175 -45 -47 -14 -128 -30 -180 -35 -114 -12 -130 -15 -240
-46 -47 -13 -141 -30 -209 -39 -68 -9 -139 -22 -156 -29 -17 -8 -65 -19 -106
-26 -41 -7 -139 -25 -219 -40 -80 -16 -174 -33 -210 -40 -36 -6 -110 -22 -165
-35 -187 -45 -480 -105 -545 -111 -36 -3 -114 -17 -175 -30 -189 -41 -350 -74
-357 -74 -5 0 -8 11 -8 24 0 29 73 121 132 167 24 18 60 48 81 66 50 44 63 42
21 -4 -35 -38 -44 -79 -22 -101 7 -7 36 -12 66 -12 56 0 68 2 332 46 85 14
184 30 220 35 36 5 112 20 170 34 58 13 164 34 235 45 72 12 166 30 211 40 44
11 121 24 170 30 49 6 143 24 209 40 66 16 181 39 255 50 74 11 142 22 150 25
8 2 78 14 155 25 77 11 172 29 210 39 154 42 289 83 307 92 19 10 25 54 8 64
-18 11 1 26 23 20 12 -3 48 -16 79 -28z m-702 -13 c0 -2 -12 -4 -27 -4 -21 0
-24 3 -14 9 13 8 41 5 41 -5z m89 -10 c2 -2 -12 -4 -32 -4 -20 0 -39 5 -42 11
-5 7 5 8 32 3 21 -4 40 -8 42 -10z m655 -261 c-8 -60 -10 -63 -37 -63 -13 0
-47 -6 -77 -14 -30 -7 -100 -24 -155 -36 -55 -13 -172 -40 -260 -60 -88 -21
-182 -41 -210 -45 -27 -3 -97 -17 -155 -30 -58 -14 -148 -32 -200 -40 -271
-46 -480 -92 -480 -105 0 -44 46 -51 172 -25 40 8 138 26 218 39 80 14 201 36
270 50 69 14 161 33 205 41 44 9 139 29 210 45 116 26 416 94 471 107 17 4 23
-3 33 -37 7 -23 10 -44 8 -47 -9 -9 -183 -52 -311 -78 -70 -13 -170 -36 -224
-49 -53 -13 -140 -32 -192 -41 -52 -9 -131 -25 -175 -35 -44 -10 -141 -30
-215 -44 -74 -15 -196 -40 -270 -57 -74 -16 -182 -37 -240 -48 -58 -10 -177
-37 -265 -59 -88 -22 -205 -47 -260 -57 -55 -10 -145 -30 -200 -45 -55 -16
-158 -40 -230 -55 -160 -34 -216 -53 -223 -77 -7 -29 -24 -16 -54 41 -32 60
-38 127 -12 117 17 -7 214 40 228 54 28 27 -93 18 -197 -14 l-47 -15 0 28 c0
17 13 43 35 68 33 39 41 43 163 72 70 17 181 40 247 51 66 12 156 30 200 40
44 10 107 24 140 30 33 7 125 27 205 45 80 19 177 39 215 45 39 6 147 26 240
45 94 19 251 50 350 70 414 80 655 132 910 195 83 20 156 38 163 38 10 2 12
-9 6 -45z m59 -310 c3 -5 7 -26 8 -48 l4 -40 -50 -7 c-50 -7 -326 -66 -525
-113 -58 -13 -154 -33 -215 -45 -60 -12 -146 -30 -190 -40 -44 -10 -138 -30
-210 -44 -71 -15 -211 -44 -310 -66 -99 -22 -198 -42 -220 -46 -38 -6 -210
-44 -285 -64 -19 -4 -84 -18 -145 -30 -60 -11 -159 -34 -220 -50 -60 -15 -132
-32 -160 -35 -27 -4 -77 -13 -110 -21 -79 -18 -121 -18 -129 1 -3 8 -12 15
-19 15 -8 0 -21 8 -31 19 -16 17 -14 19 45 35 34 10 111 26 171 37 60 10 146
30 191 44 45 13 134 33 197 44 63 11 160 31 215 44 209 53 366 87 525 117 158
29 257 48 455 89 50 10 117 23 150 28 33 5 134 26 225 46 682 152 626 141 633
130z m-3011 -293 c-38 -165 -10 -268 91 -336 42 -29 42 -29 14 -32 -15 -2 -46
7 -69 20 -55 30 -88 94 -95 181 -5 55 8 153 24 180 8 13 38 2 35 -13z"/>
<path d="M3463 3462 c-22 -9 -51 -26 -63 -37 -62 -56 -103 -192 -81 -266 36
-120 129 -199 243 -207 78 -6 135 17 198 78 40 39 53 60 71 120 21 71 21 73 4
138 -32 120 -134 193 -269 191 -34 0 -80 -8 -103 -17z m50 -71 c69 -27 89
-106 41 -168 -22 -30 -30 -33 -75 -33 -42 0 -55 5 -80 29 -51 52 -34 131 36
162 47 22 47 22 78 10z"/>
<path d="M1986 3282 c-71 -6 -137 -63 -184 -157 -59 -121 -18 -261 102 -341
45 -30 67 -37 120 -41 57 -5 72 -2 120 21 101 50 159 143 159 256 0 79 -19
126 -70 179 -65 67 -142 93 -247 83z m11 -92 c55 -20 82 -108 48 -157 -23 -33
-94 -57 -130 -43 -53 20 -75 49 -75 97 0 56 14 81 53 98 39 17 65 18 104 5z"/>
<path d="M2801 3189 c-45 -6 -94 -23 -165 -58 -158 -78 -231 -158 -261 -286
-29 -128 -13 -225 56 -327 75 -109 169 -166 324 -194 93 -17 177 -7 285 33
135 51 205 108 265 218 33 61 45 95 50 146 13 124 -42 268 -133 349 -85 76
-154 108 -258 120 -49 5 -91 9 -94 9 -3 -1 -34 -5 -69 -10z m242 -137 c130
-60 178 -132 185 -272 4 -80 2 -89 -27 -143 -57 -104 -140 -162 -280 -193
-185 -42 -357 34 -426 188 -68 152 8 322 181 404 96 45 135 54 226 50 60 -3
93 -11 141 -34z"/>
<path d="M2963 2895 c-63 -44 -35 -206 40 -231 53 -18 89 6 107 72 15 53 0
114 -37 152 -26 26 -78 29 -110 7z"/>
<path d="M2643 2836 c-26 -22 -28 -30 -28 -96 0 -68 2 -73 33 -101 68 -61 142
-22 142 75 0 119 -77 182 -147 122z"/>
<path d="M4663 3111 c-34 -21 -46 -55 -45 -124 1 -48 23 -81 72 -110 48 -27
82 -18 120 35 52 72 38 163 -32 199 -47 24 -75 24 -115 0z"/>
<path d="M2868 823 c7 -3 16 -2 19 1 4 3 -2 6 -13 5 -11 0 -14 -3 -6 -6z"/>
<path d="M4875 3864 c-47 -51 -69 -96 -61 -125 9 -33 102 -99 141 -99 39 0 48
7 90 65 57 80 45 130 -40 174 -59 31 -91 27 -130 -15z"/>
<path d="M333 3548 c-30 -35 -73 -114 -73 -137 0 -34 106 -101 160 -101 25 0
87 82 96 126 8 41 -7 67 -58 104 -50 37 -96 39 -125 8z"/>
<path d="M1182 1698 c-26 -26 0 -128 33 -128 22 0 55 37 55 60 0 12 -7 34 -15
50 -16 32 -51 40 -73 18z"/>
</g>
</svg>
