<?xml version="1.0" encoding="UTF-8"?>
<svg version="1.1" xmlns="http://www.w3.org/2000/svg" width="500" height="500">
<path d="M0 0 C165 0 330 0 500 0 C500 165 500 330 500 500 C335 500 170 500 0 500 C0 335 0 170 0 0 Z " fill="#FEFEFE" transform="translate(0,0)"/>
<path d="M0 0 C1.63235454 1.27727272 3.23842851 2.58905427 4.8125 3.9375 C5.46347656 4.48921875 6.11445313 5.0409375 6.78515625 5.609375 C17.80668789 15.78309652 20.93022017 28.61002883 22.8125 42.9375 C23.4725 42.9375 24.1325 42.9375 24.8125 42.9375 C23.8225 32.5425 23.8225 32.5425 22.8125 21.9375 C32.10985359 16.77230356 38.41876728 13.37056912 48.8125 13.9375 C48.8125 13.2775 48.8125 12.6175 48.8125 11.9375 C54.36770344 10.97931296 59.9252583 10.0761765 65.50488281 9.27148438 C67.3570712 9.00341479 69.20642821 8.71581503 71.0546875 8.421875 C73.62822619 8.18135737 75.36190672 8.11113715 77.8125 8.9375 C82.35826514 12.88513815 85.62619378 18.00596889 86.8125 23.9375 C86.9375 27.3125 86.9375 27.3125 86.8125 29.9375 C83.9398554 30.72374057 81.17919904 31.1662241 78.21484375 31.4375 C77.33530029 31.5195166 76.45575684 31.6015332 75.54956055 31.68603516 C74.16377808 31.81051025 74.16377808 31.81051025 72.75 31.9375 C71.81003174 32.02435059 70.87006348 32.11120117 69.90161133 32.20068359 C67.20549682 32.44919705 64.50905186 32.69378527 61.8125 32.9375 C60.54921875 33.05351562 59.2859375 33.16953125 57.984375 33.2890625 C55.59401091 33.50807492 53.20330888 33.72339771 50.8125 33.9375 C50.8125 40.2075 50.8125 46.4775 50.8125 52.9375 C52.24335938 52.65382568 53.67421875 52.37015137 55.1484375 52.07788086 C69.36529374 49.40157941 83.06646836 48.33245224 97.52148438 48.47094727 C100.81171176 48.49999304 104.10032254 48.49146765 107.390625 48.47851562 C122.06127263 48.49420105 136.3081822 49.79443534 150.8125 51.9375 C153.1225 52.2675 155.4325 52.5975 157.8125 52.9375 C157.4825 46.9975 157.1525 41.0575 156.8125 34.9375 C145.4275 33.4525 145.4275 33.4525 133.8125 31.9375 C135.92387354 27.71475291 138.30134361 24.65258812 141.375 21.125 C141.86291016 20.51462891 142.35082031 19.90425781 142.85351562 19.27539062 C145.01506071 16.82047323 146.56456586 15.09197693 149.89916992 14.67919922 C152.29387162 14.89256007 154.48517465 15.3359856 156.8125 15.9375 C157.55105225 16.12014404 158.28960449 16.30278809 159.05053711 16.4909668 C189.0676479 24.76895718 218.8483358 46.02467101 234.74267578 73.03320312 C246.8125 94.51760041 246.8125 94.51760041 246.8125 103.9375 C249.08520745 103.15090905 251.35558004 102.3584739 253.625 101.5625 C254.26759766 101.34078125 254.91019531 101.1190625 255.57226562 100.890625 C258.62936717 99.8135115 261.09842791 98.74688139 263.8125 96.9375 C262.46923614 94.04628446 260.92240377 91.67634307 258.9375 89.1875 C253.04189991 81.4612368 249.67990763 73.76903096 250.8125 63.9375 C253.00705454 56.57858613 256.77489588 52.27898651 262.8125 47.625 C268.73959762 44.45439101 276.08260305 45.05074887 282.44140625 46.5625 C288.30851479 48.78624334 291.91218949 52.41216269 294.8125 57.9375 C298.69602767 68.18100776 297.10601797 78.80209052 293.8125 88.9375 C303.77739767 88.81452738 303.77739767 88.81452738 313.3125 86.375 C317.14451371 84.80113723 319.71116709 84.45499025 323.8125 84.9375 C325.75 86.125 325.75 86.125 326.8125 87.9375 C327.375 90.3125 327.375 90.3125 326.8125 92.9375 C316.15937303 102.70942297 306.60945936 105.50651962 292.375 104.9375 C291.26157227 104.85218018 290.14814453 104.76686035 289.00097656 104.67895508 C283.23810379 104.36134713 279.76596976 104.30347225 275.33203125 108.25390625 C274.15207168 109.47525441 272.97801921 110.70236403 271.8125 111.9375 C269.1328125 113.71484375 269.1328125 113.71484375 266.9375 114.875 C266.19757813 115.27589844 265.45765625 115.67679687 264.6953125 116.08984375 C262.8125 116.9375 262.8125 116.9375 260.8125 116.9375 C260.4825 117.9275 260.1525 118.9175 259.8125 119.9375 C258.0703125 120.88671875 258.0703125 120.88671875 255.9375 121.625 C255.23882812 121.87636719 254.54015625 122.12773437 253.8203125 122.38671875 C251.8125 122.9375 251.8125 122.9375 248.8125 122.9375 C248.85890625 124.16082031 248.9053125 125.38414062 248.953125 126.64453125 C249.43450794 145.14259633 246.46001301 164.35289289 237.8125 180.9375 C237.1525 180.9375 236.4925 180.9375 235.8125 180.9375 C235.44125 181.98357422 235.44125 181.98357422 235.0625 183.05078125 C233.63087 186.35695177 231.82909434 189.14088521 229.8125 192.125 C229.11125 193.17042969 228.41 194.21585938 227.6875 195.29296875 C225.8125 197.9375 225.8125 197.9375 223.8125 199.9375 C223.1699765 202.00624034 223.1699765 202.00624034 222.8125 203.9375 C223.4725 203.9375 224.1325 203.9375 224.8125 203.9375 C225.17077881 204.71988037 225.52905762 205.50226074 225.89819336 206.30834961 C227.22519586 209.20337324 228.5541772 212.09747747 229.88452148 214.9909668 C230.46051617 216.24483167 231.03571447 217.49906268 231.61010742 218.75366211 C232.43460289 220.55417811 233.26217686 222.35328339 234.08984375 224.15234375 C234.83609009 225.77837524 234.83609009 225.77837524 235.59741211 227.43725586 C236.5879157 229.82188288 236.5879157 229.82188288 237.8125 230.9375 C238.37631487 236.66961781 238.37631487 236.66961781 237.8125 238.9375 C234.22517871 242.38970561 229.93648157 244.75468908 225.625 247.1875 C224.99658203 247.55101562 224.36816406 247.91453125 223.72070312 248.2890625 C219.06602444 250.9375 219.06602444 250.9375 216.8125 250.9375 C216.4825 251.9275 216.1525 252.9175 215.8125 253.9375 C215.1525 253.9375 214.4925 253.9375 213.8125 253.9375 C213.8125 254.5975 213.8125 255.2575 213.8125 255.9375 C208.5874246 257.6791918 204.31956482 258.72422355 198.8125 257.9375 C196.21544399 256.0303887 194.59904916 253.59294155 192.8125 250.9375 C191.80123047 249.45443359 191.80123047 249.45443359 190.76953125 247.94140625 C189.37972606 245.87315335 188.00377567 243.79549555 186.64453125 241.70703125 C185.10593416 239.38109237 183.51433933 237.14514916 181.8125 234.9375 C177.21365679 235.0812662 177.21365679 235.0812662 173.5234375 237.3515625 C170.93406771 239.75175459 168.14492402 240.14695195 164.75 241 C163.75214478 241.25378418 163.75214478 241.25378418 162.73413086 241.51269531 C157.46302762 242.83317442 152.16210578 243.98086461 146.8125 244.9375 C146.8125 245.5975 146.8125 246.2575 146.8125 246.9375 C145.04477781 247.42801977 143.27305927 247.90413674 141.5 248.375 C140.51386719 248.64183594 139.52773438 248.90867187 138.51171875 249.18359375 C129.77643508 250.96385748 120.87681267 251.11186382 111.98828125 251.17578125 C110.33242256 251.18788887 110.33242256 251.18788887 108.64311218 251.20024109 C106.31441778 251.21399134 103.98570398 251.22475343 101.65698242 251.23266602 C99.32554009 251.24410808 96.99412232 251.26443402 94.6628418 251.29418945 C72.68907932 251.57348388 50.8420053 250.04561712 30.375 241.375 C29.38628906 240.96121094 28.39757812 240.54742187 27.37890625 240.12109375 C24.8125 238.9375 24.8125 238.9375 21.8125 236.9375 C19.76665921 236.27591957 19.76665921 236.27591957 17.625 235.8125 C16.366875 235.52375 15.10875 235.235 13.8125 234.9375 C13.8125 234.2775 13.8125 233.6175 13.8125 232.9375 C11.09852039 232.17022415 11.09852039 232.17022415 7.8125 232.9375 C5.14124411 235.66569208 3.21098978 238.83815414 1.1875 242.0625 C0.62804687 242.9184375 0.06859375 243.774375 -0.5078125 244.65625 C-2.49850601 247.70802071 -4.4543797 250.7810865 -6.40527344 253.85839844 C-8.97102649 257.82926325 -8.97102649 257.82926325 -11.1875 258.9375 C-15.68267187 259.28295141 -18.39199673 258.68348931 -22.3046875 256.48828125 C-23.24183594 255.96943359 -24.17898437 255.45058594 -25.14453125 254.91601562 C-26.10746094 254.36623047 -27.07039063 253.81644531 -28.0625 253.25 C-29.49529297 252.45432617 -29.49529297 252.45432617 -30.95703125 251.64257812 C-35.2613584 249.2365242 -39.53308775 246.77388656 -43.7578125 244.23046875 C-44.37672363 243.85817139 -44.99563477 243.48587402 -45.63330078 243.10229492 C-48.32736262 241.08322973 -49.14351783 239.22892968 -49.63671875 235.9609375 C-49.46426968 230.34528815 -46.47259227 225.47594394 -44 220.5625 C-43.51724609 219.5725 -43.03449219 218.5825 -42.53710938 217.5625 C-39.90822945 212.21299401 -37.15547785 207.03225407 -33.97924805 201.98583984 C-32.92984157 199.27090911 -33.34789177 197.68658985 -34.1875 194.9375 C-35.15623032 193.58127755 -36.15184215 192.24332947 -37.1875 190.9375 C-37.1875 190.2775 -37.1875 189.6175 -37.1875 188.9375 C-37.8475 188.9375 -38.5075 188.9375 -39.1875 188.9375 C-39.88976141 187.69573305 -40.57379109 186.44364401 -41.25 185.1875 C-41.63285156 184.49140625 -42.01570313 183.7953125 -42.41015625 183.078125 C-43.35076712 180.48790009 -43.33571775 179.43474488 -42.1875 176.9375 C-40.4375 175.62109375 -40.4375 175.62109375 -38.1875 174.375 C-29.42613455 168.85910061 -20.50037755 157.87613266 -17.1875 147.9375 C-17.82534424 148.14826172 -18.46318848 148.35902344 -19.12036133 148.57617188 C-29.01611033 151.47190702 -38.65654769 151.48724236 -48.875 151.4375 C-50.227715 151.43635193 -50.227715 151.43635193 -51.60775757 151.43518066 C-87.29363842 151.3259733 -87.29363842 151.3259733 -97.63671875 144.265625 C-102.85945612 136.42494119 -102.64675508 128.85258019 -102.5625 119.6875 C-102.57410156 118.44097656 -102.58570313 117.19445312 -102.59765625 115.91015625 C-102.53613895 96.28613895 -102.53613895 96.28613895 -97.1875 90.9375 C-94.15332031 90.45092773 -94.15332031 90.45092773 -90.265625 90.12109375 C-89.56918884 90.05970718 -88.87275269 89.99832062 -88.1552124 89.93507385 C-85.91660921 89.73993605 -83.67717148 89.55742213 -81.4375 89.375 C-79.97519095 89.24884953 -78.51295021 89.12190455 -77.05078125 88.99414062 C-69.01781307 88.30064616 -60.98438036 87.69861288 -52.93652344 87.20336914 C-50.09958831 87.03232624 -50.09958831 87.03232624 -47.1875 85.9375 C-45.54343223 83.0685886 -45.54343223 83.0685886 -44 79.5625 C-39.36652382 69.81476221 -33.08256893 60.38447042 -25.1875 52.9375 C-24.5275 52.9375 -23.8675 52.9375 -23.1875 52.9375 C-21.53125 54.87109375 -21.53125 54.87109375 -19.6875 57.375 C-17.38839737 60.68606792 -17.38839737 60.68606792 -14.1875 62.9375 C-14.65800781 62.21304688 -15.12851563 61.48859375 -15.61328125 60.7421875 C-16.54720703 59.29199219 -16.54720703 59.29199219 -17.5 57.8125 C-18.11488281 56.86117187 -18.72976562 55.90984375 -19.36328125 54.9296875 C-25.96674531 44.09830961 -28.544323 33.05534252 -28.6875 20.5 C-28.70578857 19.67226074 -28.72407715 18.84452148 -28.74291992 17.99169922 C-28.66994521 10.66916612 -26.41046471 5.54948354 -21.6875 0 C-15.36861633 -5.21307903 -6.49297288 -4.43108226 0 0 Z " fill="#4E8853" transform="translate(136.1875,208.0625)"/>
<path d="M0 0 C0.99 0 1.98 0 3 0 C3.07476562 0.58265625 3.14953125 1.1653125 3.2265625 1.765625 C7.10610476 25.95571206 29.84814385 47.80476032 47.87109375 63.15625 C50.65496369 65.56723461 53.35593133 68.06569768 56.0625 70.5625 C63.30441741 77.94594944 63.30441741 77.94594944 72 83 C73.71358643 84.61838719 75.3707726 86.29671681 77 88 C81.58054986 92.72022894 81.58054986 92.72022894 86.5625 97 C92.10902374 101.55099384 95.46544942 106.33013004 98 113 C98.33 113.33 98.66 113.66 99 114 C99.15227908 115.74535255 99.22189694 117.49824241 99.25 119.25 C99.28867187 120.68085938 99.28867187 120.68085938 99.328125 122.140625 C98.9309658 125.60158378 98.16432098 127.26872592 96 130 C87.22334464 135.97483087 78.4997635 138.21810272 68 139 C67.67 140.32 67.34 141.64 67 143 C67.59167969 143.27714844 68.18335938 143.55429688 68.79296875 143.83984375 C76.93718072 148.12096049 85.15305032 157.29168334 88 166 C89.10961161 176.56905062 87.38761773 183.00549416 80.8125 191.125 C77.098739 195.19245252 72.85212548 198.39111787 68 201 C67.34 201 66.68 201 66 201 C66 201.66 66 202.32 66 203 C49.72900763 210 49.72900763 210 41 210 C41 202.41 41 194.82 41 187 C40.34 187 39.68 187 39 187 C38.443125 185.515 38.443125 185.515 37.875 184 C30.81904266 167.7220705 12.63392463 157.65954453 -1.3125 147.8125 C-11.89968762 140.31077215 -21.56220832 131.8803397 -31 123 C-31.7940625 122.27167969 -32.588125 121.54335937 -33.40625 120.79296875 C-43.62607112 111.09493427 -55.99927376 96.0472043 -57.203125 81.5546875 C-57.56957766 60.60581031 -43.20910877 42.92274001 -29.3515625 28.4375 C-28.23662746 27.28947483 -27.11927982 26.14378959 -26 25 C-25.02691895 24.00419922 -25.02691895 24.00419922 -24.03417969 22.98828125 C-21.94640245 20.86018424 -19.85067959 18.74035939 -17.75 16.625 C-17.1007959 15.97096191 -16.4515918 15.31692383 -15.78271484 14.64306641 C-11.87714393 10.75137668 -7.85573356 7.05079252 -3.67285156 3.45849609 C-2.40532406 2.35338674 -1.18909475 1.18909475 0 0 Z " fill="#9DCC56" transform="translate(188,40)"/>
<path d="M0 0 C5.06401227 3.20376286 8.96800568 6.55816452 11.5 12.0625 C12.62782277 19.83194575 13.75556986 28.21076653 9.0625 34.9375 C8.62550781 35.59363281 8.18851563 36.24976563 7.73828125 36.92578125 C4.68036073 41.3160241 1.81897504 44.32610194 -2.9375 46.9375 C-3.60652344 47.30875 -4.27554688 47.68 -4.96484375 48.0625 C-11.93563644 51.59077468 -18.60420609 52.1588928 -26.125 49.9375 C-32.88772465 47.04896781 -37.17070754 40.50153255 -39.9375 33.9375 C-41.21446673 24.95616735 -40.17287172 17.40098031 -34.9375 9.9375 C-33.0433295 7.52497594 -31.35784721 5.89437647 -28.9375 3.9375 C-27.6175 3.9375 -26.2975 3.9375 -24.9375 3.9375 C-24.9375 3.2775 -24.9375 2.6175 -24.9375 1.9375 C-17.71280877 -2.19089499 -7.87795865 -2.87608014 0 0 Z " fill="#4E8851" transform="translate(219.9375,118.0625)"/>
<path d="M0 0 C2.5 2.25 2.5 2.25 5 5 C6.30437335 6.11375511 7.61761583 7.2171708 8.9375 8.3125 C15.25289192 13.82802187 20.01513622 19.46451393 21 28 C21.1290983 30.6926216 21.09638332 33.30126697 21 36 C17.83527969 36.59338506 15.15064962 36.73270921 12 36 C9.58052469 33.94787958 7.75440568 31.77460362 5.82421875 29.26171875 C4.03031005 27.03757927 2.42283224 25.50382691 0 24 C-2.7738554 24.20803915 -4.62511399 24.79551672 -7.0625 26.125 C-9 27 -9 27 -10.9921875 26.77734375 C-14.20005514 25.53538721 -14.69966521 23.24491496 -16.05078125 20.23828125 C-16.36402344 19.49964844 -16.67726562 18.76101562 -17 18 C-17.30292969 17.35417969 -17.60585937 16.70835938 -17.91796875 16.04296875 C-20.16684114 10.85894837 -21.07240825 5.60716316 -20 0 C-14.58744503 -5.57657179 -6.16808535 -3.26777288 0 0 Z " fill="#548C59" transform="translate(216,35)"/>
<path d="M0 0 C0 0.66 0 1.32 0 2 C0.66 2.185625 1.32 2.37125 2 2.5625 C7.31801213 5.11071414 11.73687249 9.10530874 15 14 C14.9375 16.5 14.9375 16.5 14 19 C11.10451959 21.20970874 9.66842255 22 6 22 C5.5875 21.278125 5.175 20.55625 4.75 19.8125 C1.85444403 15.1589279 -2.95954506 12.09085538 -8 10 C-15.31058578 9.13795543 -21.56821655 9.83004379 -27.6875 14.20703125 C-30.29653114 16.28296709 -32.14338372 18.21507558 -34 21 C-40.625 20.25 -40.625 20.25 -44 18 C-43.3078339 11.09069907 -38.07558839 7.23800892 -33 3 C-22.40020044 -3.38983207 -11.66379321 -2.72723349 0 0 Z " fill="#F7F9F7" transform="translate(151,288)"/>
<path d="M0 0 C1.32 0 2.64 0 4 0 C4.08813808 4.12486211 4.14077078 8.24947739 4.1875 12.375 C4.21263672 13.53128906 4.23777344 14.68757812 4.26367188 15.87890625 C4.3232351 22.90736692 4.02579591 29.5322629 1 36 C0.01 36.495 0.01 36.495 -1 37 C-1.72693904 38.97888961 -2.39816251 40.97954558 -3 43 C-3.66 43 -4.32 43 -5 43 C-5.33 43.99 -5.66 44.98 -6 46 C-6.66 46 -7.32 46 -8 46 C-8.15855469 45.29875 -8.31710937 44.5975 -8.48046875 43.875 C-10.86764383 34.16803392 -14.8667962 27.91869575 -21.64453125 20.6640625 C-23 19 -23 19 -23 17 C-22.13117188 16.68546875 -21.26234375 16.3709375 -20.3671875 16.046875 C-9.11024756 12.22953739 -9.11024756 12.22953739 -1 4 C-0.29485154 1.85266073 -0.29485154 1.85266073 0 0 Z " fill="#C3DB91" transform="translate(290,166)"/>
<path d="M0 0 C2.375 1.4375 2.375 1.4375 4 4 C5.09280032 10.24983554 3.48447039 15.30642201 1 21 C-1.7075196 20.63507345 -2.80847689 20.20470131 -4.703125 18.1796875 C-7.9775362 13.30114556 -9.85136774 10.08119816 -9 4 C-8.67 3.01 -8.34 2.02 -8 1 C-5.15916359 -0.42041821 -3.14522722 -0.31452272 0 0 Z " fill="#F4F7F4" transform="translate(413,270)"/>
<path d="M0 0 C4 0 4 0 5.74609375 1.64453125 C6.30425781 2.35996094 6.86242187 3.07539062 7.4375 3.8125 C10.03230115 6.97211778 12.26173202 9.18750643 16 11 C15.6875 12.875 15.6875 12.875 15 15 C12 17 12 17 10.0703125 16.9375 C7.10798664 15.59606942 5.80826109 13.58748252 3.875 11 C1.39933745 7.45327277 1.39933745 7.45327277 -2 5 C-1.125 1.125 -1.125 1.125 0 0 Z " fill="#C8DE9D" transform="translate(211,64)"/>
<path d="M0 0 C0.66 0.33 1.32 0.66 2 1 C1.67 1.99 1.34 2.98 1 4 C0.34 4 -0.32 4 -1 4 C-1 4.66 -1 5.32 -1 6 C-1.92039063 6.33451172 -1.92039063 6.33451172 -2.859375 6.67578125 C-7.02163059 9.25060724 -7.7672773 14.4904991 -9 19 C-9.83756428 24.86294996 -7.97212692 29.28689557 -5.77734375 34.64453125 C-5 37 -5 37 -6 39 C-11.38185776 31.73449203 -12.25012446 24.88193264 -11 16 C-8.87451989 9.29032761 -5.21693117 4.61031127 0 0 Z " fill="#649A4C" transform="translate(191,122)"/>
<path d="M0 0 C1.32 0 2.64 0 4 0 C4.08813808 4.12486211 4.14077078 8.24947739 4.1875 12.375 C4.21263672 13.53128906 4.23777344 14.68757812 4.26367188 15.87890625 C4.32505259 23.12183108 3.58048618 29.21373834 1 36 C-0.01966251 32.7698803 0.04697997 31.81521211 0.9375 28.3125 C2.7603011 21.04576273 2.15363391 13.43417424 2 6 C0.35 6.66 -1.3 7.32 -3 8 C-2.5359375 7.13375 -2.5359375 7.13375 -2.0625 6.25 C-1.07416636 4.15705816 -0.4831387 2.25464725 0 0 Z " fill="#DDE9C3" transform="translate(290,166)"/>
<path d="M0 0 C0.66 0.33 1.32 0.66 2 1 C1.01 1.33 0.02 1.66 -1 2 C-0.855625 2.59425781 -0.71125 3.18851563 -0.5625 3.80078125 C0.89016288 10.28732452 1.2270145 16.36613186 1 23 C0.34 23 -0.32 23 -1 23 C-3.4021604 18.1956792 -3.61122229 13.26896105 -4 8 C-3.67 8 -3.34 8 -3 8 C-2.87625 6.865625 -2.7525 5.73125 -2.625 4.5625 C-2.41875 3.386875 -2.2125 2.21125 -2 1 C-1.34 0.67 -0.68 0.34 0 0 Z " fill="#B4C9B5" transform="translate(160,228)"/>
<path d="M0 0 C-0.99 0.66 -1.98 1.32 -3 2 C-7.02448088 4.96540696 -9.88050647 8.14167906 -13 12 C-13.98290968 13.01680311 -14.97334787 14.02738219 -16 15 C-15.01 15.33 -14.02 15.66 -13 16 C-13 16.33 -13 16.66 -13 17 C-15.31 17 -17.62 17 -20 17 C-18.27222063 12.74376302 -15.28384169 9.61682432 -12.25 6.25 C-11.48042969 5.34701172 -11.48042969 5.34701172 -10.6953125 4.42578125 C-7.27895035 0.64031465 -5.36583954 -0.80326939 0 0 Z " fill="#82A784" transform="translate(290,223)"/>
<path d="M0 0 C2 1 2 1 3.125 3.6875 C3.98889074 6.9579435 4.16013991 9.63706182 4 13 C1.00519083 13.8723412 -1.63575911 14.10829766 -4.75 14.0625 C-5.54921875 14.05347656 -6.3484375 14.04445312 -7.171875 14.03515625 C-7.77515625 14.02355469 -8.3784375 14.01195312 -9 14 C-8.67 12.68 -8.34 11.36 -8 10 C-4.31733897 10.59950296 -0.65456815 11.24758891 3 12 C3 11.01 3 10.02 3 9 C2.34 9 1.68 9 1 9 C0.67 6.03 0.34 3.06 0 0 Z " fill="#6E9A72" transform="translate(219,225)"/>
<path d="M0 0 C0.33 0.66 0.66 1.32 1 2 C0.4225 2.66 -0.155 3.32 -0.75 4 C-2.57081837 6.42775783 -3.69816823 8.35620409 -4.9375 11.0625 C-6.66072578 14.69431848 -8.61040364 16.74026909 -12 19 C-12 15.05719827 -10.59849678 13.75347198 -8.25 10.625 C-7.20585937 9.22121094 -7.20585937 9.22121094 -6.140625 7.7890625 C-4.12654031 5.16487186 -2.07783749 2.57389779 0 0 Z " fill="#B6D482" transform="translate(155,72)"/>
<path d="M0 0 C0.66 0.33 1.32 0.66 2 1 C-0.76809421 5.45302113 -3.4775025 7.06290976 -8.33984375 8.5078125 C-13.20690862 9.40832671 -18.07339953 9.22507312 -23 9 C-23 8.67 -23 8.34 -23 8 C-22.41734375 7.99742187 -21.8346875 7.99484375 -21.234375 7.9921875 C-13.94694342 7.64844073 -5.33506481 5.33506481 0 0 Z " fill="#87BA59" transform="translate(221,161)"/>
<path d="M0 0 C1.38938077 1.96147874 2.7260411 3.96166576 4 6 C2.35 6 0.7 6 -1 6 C-0.67 5.01 -0.34 4.02 0 3 C-1.0828125 4.1446875 -1.0828125 4.1446875 -2.1875 5.3125 C-4.69790967 7.71133591 -6.96808302 9.35410221 -10 11 C-8.64763423 8.06120516 -7.10057341 5.70767089 -5 3.25 C-4.484375 2.63640625 -3.96875 2.0228125 -3.4375 1.390625 C-2 0 -2 0 0 0 Z " fill="#789F7B" transform="translate(113,261)"/>
<path d="M0 0 C2.5 0.125 2.5 0.125 5 1 C6.3125 3.0625 6.3125 3.0625 7 5 C6.01 4.34 5.02 3.68 4 3 C1.28474198 3.278488 -0.66455867 3.817032 -3.0625 5.125 C-5.4619665 6.20863003 -6.57028208 5.8677564 -9 5 C-9 4.01 -9 3.02 -9 2 C-7.329375 2.061875 -7.329375 2.061875 -5.625 2.125 C-1.95633975 2.41121859 -1.95633975 2.41121859 0 0 Z " fill="#A6BEA7" transform="translate(212,56)"/>
<path d="M0 0 C2.93774463 -0.05390357 5.87450232 -0.0936255 8.8125 -0.125 C10.06256836 -0.15013672 10.06256836 -0.15013672 11.33789062 -0.17578125 C12.14033203 -0.18222656 12.94277344 -0.18867187 13.76953125 -0.1953125 C14.50792236 -0.20578613 15.24631348 -0.21625977 16.00708008 -0.22705078 C18 0 18 0 21 2 C19.12054688 1.98259766 19.12054688 1.98259766 17.203125 1.96484375 C15.55208483 1.95546284 13.90104304 1.94636296 12.25 1.9375 C11.425 1.92912109 10.6 1.92074219 9.75 1.91210938 C8.95078125 1.90888672 8.1515625 1.90566406 7.328125 1.90234375 C6.5949707 1.89710693 5.86181641 1.89187012 5.10644531 1.88647461 C2.9538151 2.0024891 1.0685865 2.40926729 -1 3 C-0.67 2.01 -0.34 1.02 0 0 Z " fill="#83B755" transform="translate(199,116)"/>
<path d="M0 0 C0.99 0 1.98 0 3 0 C2.67 1.98 2.34 3.96 2 6 C4.97 6 7.94 6 11 6 C11 6.33 11 6.66 11 7 C7.37 7 3.74 7 0 7 C-0.38133299 5.0085944 -0.71325582 3.00720923 -1 1 C-0.67 0.67 -0.34 0.34 0 0 Z " fill="#86A787" transform="translate(428,291)"/>
<path d="M0 0 C0 3.95875396 -1.21313946 6.49009536 -3 10 C-5.1875 11.4375 -5.1875 11.4375 -7 12 C-5.44298069 7.32894208 -2.91552627 3.91294315 0 0 Z " fill="#80A382" transform="translate(118,359)"/>
<path d="M0 0 C2.74277578 3.19990508 4.6302836 6.00499382 6 10 C2.19118361 8.55527654 0.70257114 6.67396929 -1 3 C-0.67 2.01 -0.34 1.02 0 0 Z " fill="#C6D7C7" transform="translate(116,261)"/>
<path d="M0 0 C2.86714191 1.43357096 3.60338699 3.14329157 5 6 C5.1875 9.3125 5.1875 9.3125 5 12 C2.2289312 9.65408148 1.47940716 7.85223799 0.8125 4.3125 C0.65394531 3.50425781 0.49539062 2.69601563 0.33203125 1.86328125 C0.22246094 1.24839844 0.11289063 0.63351563 0 0 Z " fill="#789F7B" transform="translate(111,248)"/>
<path d="M0 0 C0.94875 0.04125 1.8975 0.0825 2.875 0.125 C1.885 0.785 0.895 1.445 -0.125 2.125 C-3.66178072 4.66545287 -3.66178072 4.66545287 -6.125 8.125 C-6.785 7.795 -7.445 7.465 -8.125 7.125 C-4.09482759 0.1637931 -4.09482759 0.1637931 0 0 Z " fill="#6B986C" transform="translate(287.125,222.875)"/>
<path d="M0 0 C0.33 0.66 0.66 1.32 1 2 C0.22265625 3.7265625 0.22265625 3.7265625 -0.9375 5.625 C-1.618125 6.73875 -2.29875 7.8525 -3 9 C-3.99 9 -4.98 9 -6 9 C-4.47291037 5.56404834 -2.40072955 2.88087546 0 0 Z " fill="#84B85A" transform="translate(229,152)"/>
<path d="M0 0 C0.66 0.33 1.32 0.66 2 1 C0.21825212 3.30142435 -1.16304165 4.80034391 -4.046875 5.48828125 C-6.0246611 5.72323102 -8.01271872 5.86751458 -10 6 C-6.87511433 3.47605388 -3.68685613 1.60298093 0 0 Z " fill="#CFDFAA" transform="translate(283,176)"/>
<path d="M0 0 C-1.49097658 3.7952131 -3.75700849 5.61042731 -7 8 C-7 5 -7 5 -4.625 2.3125 C-2 0 -2 0 0 0 Z " fill="#759B74" transform="translate(119,206)"/>
<path d="M0 0 C2.58556706 2.58556706 3.25845081 4.5637749 3.375 8.125 C3.25125 9.40375 3.1275 10.6825 3 12 C2.01 12.66 1.02 13.32 0 14 C0.08378906 13.40832031 0.16757812 12.81664062 0.25390625 12.20703125 C0.80889424 7.90060543 1.23226652 4.24447356 0 0 Z " fill="#7EA27F" transform="translate(371,435)"/>
<path d="M0 0 C2 1 2 1 3.125 3.6875 C3.98889074 6.9579435 4.16013991 9.63706182 4 13 C3.67 11.68 3.34 10.36 3 9 C2.34 9 1.68 9 1 9 C0.67 6.03 0.34 3.06 0 0 Z " fill="#7FA481" transform="translate(219,225)"/>
<path d="M0 0 C3.3125 0.625 3.3125 0.625 7 2 C8.9375 5.125 8.9375 5.125 10 8 C6.05205855 6.32971708 3.18203882 3.8204435 0 1 C0 0.67 0 0.34 0 0 Z " fill="#B8D485" transform="translate(164,169)"/>
<path d="M0 0 C2.79872437 2.52788007 4.45773019 4.20411134 5 8 C3 8 3 8 1.375 6.8125 C-0.42149467 4.44439338 -0.23521845 2.90102749 0 0 Z " fill="#7DA582" transform="translate(149,223)"/>
<path d="M0 0 C2.64 1.98 5.28 3.96 8 6 C6.68 6.33 5.36 6.66 4 7 C1 5 1 5 0.3125 2.375 C0.209375 1.59125 0.10625 0.8075 0 0 Z " fill="#8EC25D" transform="translate(184,160)"/>
<path d="M0 0 C0.66 0.33 1.32 0.66 2 1 C0.02 3.97 0.02 3.97 -2 7 C-2.66 5.68 -3.32 4.36 -4 3 C-2.68 2.01 -1.36 1.02 0 0 Z " fill="#67956A" transform="translate(399,256)"/>
<path d="M0 0 C1.65 0 3.3 0 5 0 C4.67 0.66 4.34 1.32 4 2 C3.34 2 2.68 2 2 2 C2 2.66 2 3.32 2 4 C0.35 4.33 -1.3 4.66 -3 5 C-2.67 4.34 -2.34 3.68 -2 3 C-1.34 3 -0.68 3 0 3 C0 2.01 0 1.02 0 0 Z " fill="#9AB59B" transform="translate(348,460)"/>
<path d="M0 0 C2 3 2 3 2 5 C3.32 5.33 4.64 5.66 6 6 C4.34385343 6.38218767 2.67542976 6.71395102 1 7 C0 6 0 6 -0.0625 2.9375 C-0.041875 1.968125 -0.02125 0.99875 0 0 Z " fill="#8BAB8D" transform="translate(381,307)"/>
<path d="M0 0 C0.66 0 1.32 0 2 0 C1.8125 1.875 1.8125 1.875 1 4 C-1.5625 5.25 -1.5625 5.25 -4 6 C-2.84826645 3.53199953 -1.95216435 1.95216435 0 0 Z " fill="#D0E2A9" transform="translate(291,168)"/>
<path d="M0 0 C0.66 0.99 1.32 1.98 2 3 C0.02 3.99 0.02 3.99 -2 5 C-2 5.99 -2 6.98 -2 8 C-2.66 8 -3.32 8 -4 8 C-2.87548273 5.0280615 -1.77706209 2.66559313 0 0 Z " fill="#B7D685" transform="translate(141,91)"/>
</svg>
